<mxfile host="Electron" modified="2024-02-06T05:50:30.823Z" agent="Mozilla/5.0 (Windows NT 10.0; Win64; x64) AppleWebKit/537.36 (KHTML, like Gecko) draw.io/22.1.16 Chrome/120.0.6099.109 Electron/28.1.0 Safari/537.36" etag="jy_IW_pRO4l5AnEJIVHI" version="22.1.16" type="device">
  <diagram id="C5RBs43oDa-KdzZeNtuy" name="Page-1">
    <mxGraphModel dx="864" dy="508" grid="0" gridSize="10" guides="1" tooltips="1" connect="1" arrows="1" fold="1" page="1" pageScale="1" pageWidth="827" pageHeight="1169" math="0" shadow="0">
      <root>
        <mxCell id="WIyWlLk6GJQsqaUBKTNV-0" />
        <mxCell id="WIyWlLk6GJQsqaUBKTNV-1" parent="WIyWlLk6GJQsqaUBKTNV-0" />
        <mxCell id="86FwZAQYS3h-tKqfAoDZ-0" value="&lt;p style=&quot;margin:0px;margin-top:4px;text-align:center;&quot;&gt;&lt;i&gt;&amp;lt;&amp;lt;Interface&amp;gt;&amp;gt;&lt;/i&gt;&lt;br&gt;&lt;b&gt;DispositiuElectronic&lt;/b&gt;&lt;/p&gt;&lt;hr size=&quot;1&quot;&gt;&lt;p style=&quot;margin:0px;margin-left:4px;&quot;&gt;&lt;br&gt;&lt;/p&gt;&lt;hr size=&quot;1&quot;&gt;&lt;p style=&quot;margin:0px;margin-left:4px;&quot;&gt;&lt;b&gt;&lt;i&gt;+ on(): void&lt;br&gt;+ off(): void&lt;/i&gt;&lt;/b&gt;&lt;/p&gt;" style="verticalAlign=top;align=left;overflow=fill;fontSize=12;fontFamily=Helvetica;html=1;whiteSpace=wrap;" parent="WIyWlLk6GJQsqaUBKTNV-1" vertex="1">
          <mxGeometry x="343" y="168" width="189" height="102" as="geometry" />
        </mxCell>
        <mxCell id="86FwZAQYS3h-tKqfAoDZ-1" value="Extends" style="endArrow=block;endSize=16;endFill=0;html=1;rounded=0;entryX=0.5;entryY=1;entryDx=0;entryDy=0;exitX=0.5;exitY=0;exitDx=0;exitDy=0;" parent="WIyWlLk6GJQsqaUBKTNV-1" source="zkfFHV4jXpPFQw0GAbJ--6" target="86FwZAQYS3h-tKqfAoDZ-44" edge="1">
          <mxGeometry x="-0.2205" y="1" width="160" relative="1" as="geometry">
            <mxPoint x="259.25" y="671" as="sourcePoint" />
            <mxPoint x="393.2500000000002" y="570" as="targetPoint" />
            <mxPoint as="offset" />
          </mxGeometry>
        </mxCell>
        <mxCell id="86FwZAQYS3h-tKqfAoDZ-5" value="IPhone8" style="swimlane;fontStyle=0;align=center;verticalAlign=top;childLayout=stackLayout;horizontal=1;startSize=26;horizontalStack=0;resizeParent=1;resizeLast=0;collapsible=1;marginBottom=0;rounded=0;shadow=0;strokeWidth=1;" parent="WIyWlLk6GJQsqaUBKTNV-1" vertex="1">
          <mxGeometry x="431" y="519" width="191" height="110" as="geometry">
            <mxRectangle x="130" y="380" width="160" height="26" as="alternateBounds" />
          </mxGeometry>
        </mxCell>
        <mxCell id="86FwZAQYS3h-tKqfAoDZ-6" value="+ patroCodiPin: String&#xa;+ patroEmpremta: String" style="text;align=left;verticalAlign=top;spacingLeft=4;spacingRight=4;overflow=hidden;rotatable=0;points=[[0,0.5],[1,0.5]];portConstraint=eastwest;" parent="86FwZAQYS3h-tKqfAoDZ-5" vertex="1">
          <mxGeometry y="26" width="191" height="39" as="geometry" />
        </mxCell>
        <mxCell id="86FwZAQYS3h-tKqfAoDZ-7" value="" style="line;html=1;strokeWidth=1;align=left;verticalAlign=middle;spacingTop=-1;spacingLeft=3;spacingRight=3;rotatable=0;labelPosition=right;points=[];portConstraint=eastwest;" parent="86FwZAQYS3h-tKqfAoDZ-5" vertex="1">
          <mxGeometry y="65" width="191" height="6" as="geometry" />
        </mxCell>
        <mxCell id="aNnPd8bbarzG9emD7b4C-1" value="+ setPatroCodiPin(String): void&#xa;+ setPatroEmpremta(String): void" style="text;align=left;verticalAlign=top;spacingLeft=4;spacingRight=4;overflow=hidden;rotatable=0;points=[[0,0.5],[1,0.5]];portConstraint=eastwest;" parent="86FwZAQYS3h-tKqfAoDZ-5" vertex="1">
          <mxGeometry y="71" width="191" height="39" as="geometry" />
        </mxCell>
        <mxCell id="86FwZAQYS3h-tKqfAoDZ-18" value="Extends" style="endArrow=block;endSize=16;endFill=0;html=1;rounded=0;exitX=0.75;exitY=0;exitDx=0;exitDy=0;entryX=0.75;entryY=1;entryDx=0;entryDy=0;" parent="WIyWlLk6GJQsqaUBKTNV-1" source="86FwZAQYS3h-tKqfAoDZ-5" target="86FwZAQYS3h-tKqfAoDZ-44" edge="1">
          <mxGeometry x="-0.3362" y="-4" width="160" relative="1" as="geometry">
            <mxPoint x="152" y="526" as="sourcePoint" />
            <mxPoint x="472" y="563" as="targetPoint" />
            <mxPoint as="offset" />
          </mxGeometry>
        </mxCell>
        <mxCell id="86FwZAQYS3h-tKqfAoDZ-22" value="IPhone10" style="swimlane;fontStyle=0;align=center;verticalAlign=top;childLayout=stackLayout;horizontal=1;startSize=26;horizontalStack=0;resizeParent=1;resizeLast=0;collapsible=1;marginBottom=0;rounded=0;shadow=0;strokeWidth=1;" parent="WIyWlLk6GJQsqaUBKTNV-1" vertex="1">
          <mxGeometry x="431" y="679" width="191" height="84" as="geometry">
            <mxRectangle x="130" y="380" width="160" height="26" as="alternateBounds" />
          </mxGeometry>
        </mxCell>
        <mxCell id="86FwZAQYS3h-tKqfAoDZ-23" value="+ patroRostre: String" style="text;align=left;verticalAlign=top;spacingLeft=4;spacingRight=4;overflow=hidden;rotatable=0;points=[[0,0.5],[1,0.5]];portConstraint=eastwest;" parent="86FwZAQYS3h-tKqfAoDZ-22" vertex="1">
          <mxGeometry y="26" width="191" height="26" as="geometry" />
        </mxCell>
        <mxCell id="86FwZAQYS3h-tKqfAoDZ-25" value="" style="line;html=1;strokeWidth=1;align=left;verticalAlign=middle;spacingTop=-1;spacingLeft=3;spacingRight=3;rotatable=0;labelPosition=right;points=[];portConstraint=eastwest;" parent="86FwZAQYS3h-tKqfAoDZ-22" vertex="1">
          <mxGeometry y="52" width="191" height="6" as="geometry" />
        </mxCell>
        <mxCell id="aNnPd8bbarzG9emD7b4C-2" value="+ setPatroRostre(String): void" style="text;align=left;verticalAlign=top;spacingLeft=4;spacingRight=4;overflow=hidden;rotatable=0;points=[[0,0.5],[1,0.5]];portConstraint=eastwest;" parent="86FwZAQYS3h-tKqfAoDZ-22" vertex="1">
          <mxGeometry y="58" width="191" height="26" as="geometry" />
        </mxCell>
        <mxCell id="86FwZAQYS3h-tKqfAoDZ-30" value="Extends" style="endArrow=block;endSize=16;endFill=0;html=1;rounded=0;exitX=0.5;exitY=0;exitDx=0;exitDy=0;" parent="WIyWlLk6GJQsqaUBKTNV-1" source="86FwZAQYS3h-tKqfAoDZ-22" target="86FwZAQYS3h-tKqfAoDZ-5" edge="1">
          <mxGeometry width="160" relative="1" as="geometry">
            <mxPoint x="152" y="626" as="sourcePoint" />
            <mxPoint x="447" y="674" as="targetPoint" />
          </mxGeometry>
        </mxCell>
        <mxCell id="86FwZAQYS3h-tKqfAoDZ-44" value="&lt;p style=&quot;margin:0px;margin-top:4px;text-align:center;&quot;&gt;&lt;i&gt;&amp;lt;&amp;lt;Abstract&amp;gt;&amp;gt;&lt;/i&gt;&lt;br&gt;&lt;b&gt;Telefon&lt;/b&gt;&lt;/p&gt;&lt;hr size=&quot;1&quot;&gt;&lt;p style=&quot;margin:0px;margin-left:4px;&quot;&gt;+ marca: String&lt;br&gt;+ persona: Persona&lt;/p&gt;&lt;p style=&quot;margin:0px;margin-left:4px;&quot;&gt;+ onOff: boolean&lt;/p&gt;&lt;hr size=&quot;1&quot;&gt;&lt;p style=&quot;margin:0px;margin-left:4px;&quot;&gt;+ getOnOff(): boolean&lt;/p&gt;&lt;p style=&quot;margin:0px;margin-left:4px;&quot;&gt;+ setOnOff(): void&lt;/p&gt;&lt;p style=&quot;margin:0px;margin-left:4px;&quot;&gt;&lt;br&gt;&lt;/p&gt;" style="verticalAlign=top;align=left;overflow=fill;fontSize=12;fontFamily=Helvetica;html=1;whiteSpace=wrap;" parent="WIyWlLk6GJQsqaUBKTNV-1" vertex="1">
          <mxGeometry x="250" y="320" width="313" height="138" as="geometry" />
        </mxCell>
        <mxCell id="86FwZAQYS3h-tKqfAoDZ-45" value="" style="endArrow=block;dashed=1;endFill=0;endSize=12;html=1;rounded=0;entryX=0.5;entryY=1;entryDx=0;entryDy=0;exitX=0.419;exitY=0.014;exitDx=0;exitDy=0;exitPerimeter=0;" parent="WIyWlLk6GJQsqaUBKTNV-1" source="86FwZAQYS3h-tKqfAoDZ-44" target="86FwZAQYS3h-tKqfAoDZ-0" edge="1">
          <mxGeometry width="160" relative="1" as="geometry">
            <mxPoint x="457" y="305" as="sourcePoint" />
            <mxPoint x="317" y="161" as="targetPoint" />
          </mxGeometry>
        </mxCell>
        <mxCell id="86FwZAQYS3h-tKqfAoDZ-46" value="&lt;p style=&quot;margin:0px;margin-top:4px;text-align:center;&quot;&gt;&lt;i&gt;&amp;lt;&amp;lt;Interface&amp;gt;&amp;gt;&lt;/i&gt;&lt;br&gt;&lt;b&gt;ValidadorDispositius&lt;/b&gt;&lt;/p&gt;&lt;hr size=&quot;1&quot;&gt;&lt;p style=&quot;margin:0px;margin-left:4px;&quot;&gt;&lt;br&gt;&lt;/p&gt;&lt;hr size=&quot;1&quot;&gt;&lt;p style=&quot;margin:0px;margin-left:4px;&quot;&gt;&lt;i style=&quot;border-color: var(--border-color);&quot;&gt;&lt;b style=&quot;border-color: var(--border-color);&quot;&gt;+ setPatrons(String, String, String, String): void&lt;/b&gt;&lt;/i&gt;&lt;b&gt;&lt;i&gt;&lt;br&gt;&lt;/i&gt;&lt;/b&gt;&lt;/p&gt;&lt;p style=&quot;margin:0px;margin-left:4px;&quot;&gt;&lt;b&gt;&lt;i&gt;+ validaPatrons(Persona): boolean&lt;/i&gt;&lt;/b&gt;&lt;/p&gt;" style="verticalAlign=top;align=left;overflow=fill;fontSize=12;fontFamily=Helvetica;html=1;whiteSpace=wrap;" parent="WIyWlLk6GJQsqaUBKTNV-1" vertex="1">
          <mxGeometry x="8" y="168" width="280" height="105" as="geometry" />
        </mxCell>
        <mxCell id="86FwZAQYS3h-tKqfAoDZ-49" value="Persona" style="swimlane;fontStyle=1;align=center;verticalAlign=top;childLayout=stackLayout;horizontal=1;startSize=26;horizontalStack=0;resizeParent=1;resizeParentMax=0;resizeLast=0;collapsible=1;marginBottom=0;whiteSpace=wrap;html=1;" parent="WIyWlLk6GJQsqaUBKTNV-1" vertex="1">
          <mxGeometry x="655" y="310" width="169" height="272" as="geometry" />
        </mxCell>
        <mxCell id="86FwZAQYS3h-tKqfAoDZ-50" value="+ nom: String&lt;br&gt;+&amp;nbsp;patroCodiPin: String&lt;div&gt;+ patroTeclat: String&lt;/div&gt;&lt;div&gt;+ patroEmprempta:&lt;span style=&quot;background-color: initial;&quot;&gt;String&lt;/span&gt;&lt;/div&gt;&lt;div&gt;&lt;span style=&quot;background-color: initial;&quot;&gt;+ patroRostre: String&lt;/span&gt;&lt;/div&gt;" style="text;strokeColor=none;fillColor=none;align=left;verticalAlign=top;spacingLeft=4;spacingRight=4;overflow=hidden;rotatable=0;points=[[0,0.5],[1,0.5]];portConstraint=eastwest;whiteSpace=wrap;html=1;" parent="86FwZAQYS3h-tKqfAoDZ-49" vertex="1">
          <mxGeometry y="26" width="169" height="84" as="geometry" />
        </mxCell>
        <mxCell id="86FwZAQYS3h-tKqfAoDZ-51" value="" style="line;strokeWidth=1;fillColor=none;align=left;verticalAlign=middle;spacingTop=-1;spacingLeft=3;spacingRight=3;rotatable=0;labelPosition=right;points=[];portConstraint=eastwest;strokeColor=inherit;" parent="86FwZAQYS3h-tKqfAoDZ-49" vertex="1">
          <mxGeometry y="110" width="169" height="8" as="geometry" />
        </mxCell>
        <mxCell id="86FwZAQYS3h-tKqfAoDZ-52" value="+ getNom(): String&lt;br&gt;+ getPatroCodiPin: String&lt;br&gt;+ getPatroTeclat: String&lt;br&gt;+ getPatroEmprempta: String&lt;br&gt;+ getPatroRostre: String&lt;br&gt;+ setNom(): void&lt;br style=&quot;border-color: var(--border-color);&quot;&gt;+ setPatroCodiPin: void&lt;br style=&quot;border-color: var(--border-color);&quot;&gt;+ setPatroTeclat: void&lt;br style=&quot;border-color: var(--border-color);&quot;&gt;+ setPatroEmprempta: void&lt;br style=&quot;border-color: var(--border-color);&quot;&gt;+ setPatroRostre: void" style="text;strokeColor=none;fillColor=none;align=left;verticalAlign=top;spacingLeft=4;spacingRight=4;overflow=hidden;rotatable=0;points=[[0,0.5],[1,0.5]];portConstraint=eastwest;whiteSpace=wrap;html=1;" parent="86FwZAQYS3h-tKqfAoDZ-49" vertex="1">
          <mxGeometry y="118" width="169" height="154" as="geometry" />
        </mxCell>
        <mxCell id="86FwZAQYS3h-tKqfAoDZ-53" value="Use" style="endArrow=open;endSize=12;dashed=1;html=1;rounded=0;entryX=1;entryY=0.25;entryDx=0;entryDy=0;exitX=0;exitY=0.5;exitDx=0;exitDy=0;" parent="WIyWlLk6GJQsqaUBKTNV-1" source="86FwZAQYS3h-tKqfAoDZ-50" target="86FwZAQYS3h-tKqfAoDZ-44" edge="1">
          <mxGeometry width="160" relative="1" as="geometry">
            <mxPoint x="333" y="439" as="sourcePoint" />
            <mxPoint x="493" y="439" as="targetPoint" />
          </mxGeometry>
        </mxCell>
        <mxCell id="e9dP5b6rd1Qi9HyAw2Jl-4" value="" style="endArrow=block;dashed=1;endFill=0;endSize=12;html=1;rounded=0;entryX=0.75;entryY=1;entryDx=0;entryDy=0;exitX=0.25;exitY=0;exitDx=0;exitDy=0;" parent="WIyWlLk6GJQsqaUBKTNV-1" source="86FwZAQYS3h-tKqfAoDZ-44" target="86FwZAQYS3h-tKqfAoDZ-46" edge="1">
          <mxGeometry width="160" relative="1" as="geometry">
            <mxPoint x="329" y="747" as="sourcePoint" />
            <mxPoint x="837" y="274" as="targetPoint" />
          </mxGeometry>
        </mxCell>
        <mxCell id="zkfFHV4jXpPFQw0GAbJ--6" value="Android" style="swimlane;fontStyle=0;align=center;verticalAlign=top;childLayout=stackLayout;horizontal=1;startSize=26;horizontalStack=0;resizeParent=1;resizeLast=0;collapsible=1;marginBottom=0;rounded=0;shadow=0;strokeWidth=1;" parent="WIyWlLk6GJQsqaUBKTNV-1" vertex="1">
          <mxGeometry x="213" y="519" width="191" height="146" as="geometry">
            <mxRectangle x="130" y="380" width="160" height="26" as="alternateBounds" />
          </mxGeometry>
        </mxCell>
        <mxCell id="zkfFHV4jXpPFQw0GAbJ--7" value="+ patroCodiPin: String&#xa;+ patroTeclat: String&#xa;+ patroEmpremta: String" style="text;align=left;verticalAlign=top;spacingLeft=4;spacingRight=4;overflow=hidden;rotatable=0;points=[[0,0.5],[1,0.5]];portConstraint=eastwest;" parent="zkfFHV4jXpPFQw0GAbJ--6" vertex="1">
          <mxGeometry y="26" width="191" height="57" as="geometry" />
        </mxCell>
        <mxCell id="zkfFHV4jXpPFQw0GAbJ--9" value="" style="line;html=1;strokeWidth=1;align=left;verticalAlign=middle;spacingTop=-1;spacingLeft=3;spacingRight=3;rotatable=0;labelPosition=right;points=[];portConstraint=eastwest;" parent="zkfFHV4jXpPFQw0GAbJ--6" vertex="1">
          <mxGeometry y="83" width="191" height="6" as="geometry" />
        </mxCell>
        <mxCell id="aNnPd8bbarzG9emD7b4C-0" value="+ setPatroCodiPin(String): void&#xa;+ setPatroTeclat(String): void&#xa;+ sePatroEmpremta(String): void" style="text;align=left;verticalAlign=top;spacingLeft=4;spacingRight=4;overflow=hidden;rotatable=0;points=[[0,0.5],[1,0.5]];portConstraint=eastwest;" parent="zkfFHV4jXpPFQw0GAbJ--6" vertex="1">
          <mxGeometry y="89" width="191" height="57" as="geometry" />
        </mxCell>
      </root>
    </mxGraphModel>
  </diagram>
</mxfile>
